# xmcd CD database file
#
# Track frame offsets:
#	150
#	14860
#	31405
#	49363
#	70553
#	90450
#	106790
#	124033
#	141348
#	158633
#	176688
#	191435
#
# Disc length: 2805 seconds
#
# Revision: 0
# Processed by: cddbd v1.5PL3 Copyright (c) Steve Scherf et al.
# Submitted via: CDex 1.51
#
DISCID=9e0af30c
DTITLE=白石まるみ - 白石まるみ コレクション
DYEAR=2004
DGENRE=Pop
TTITLE0=オリオン座のむこう
TTITLE1=恋人がいても
TTITLE2=YoKoSuKa愛の色
TTITLE3=レイニー・ガール
TTITLE4=恋人達の明日
TTITLE5=翼をつけてラブ・ソング
TTITLE6=6月のまばたき
TTITLE7=A Little Fall
TTITLE8=8月生まれSummer Girl
TTITLE9=End of Love
TTITLE10=9月の印象
TTITLE11=ときめきシュガータウン
EXTD=YEAR: 2004
EXTT0=
EXTT1=
EXTT2=
EXTT3=
EXTT4=
EXTT5=
EXTT6=
EXTT7=
EXTT8=
EXTT9=
EXTT10=
EXTT11=
PLAYORDER=
